<svg id="Layer_1" data-name="Layer 1" xmlns="http://www.w3.org/2000/svg" viewBox="0 0 2472.96 2794.81"><title>ANCHOUR LOGO VECTOR</title><path d="M2412.31,1822.64c-26-124.82-23.83-267.88-23.83-267.88l-0.14-.06s-92,109.57-193.38,186.89-199,137.22-199,137.22l125,46.61c-31,50.83-192.06,287.24-498.14,266.82-309.75-20.69-242.06-348.93-270.86-1003.13-1.37-31-4.87-118.38-5.9-223.37,80,0,331.93-69.06,388.7-48.07,17,6.28,42.21,25.33,62.74,42.53,30.49,25.57,29.68-73.69,28.58-126.73-0.11-28.67.65-34.18-1.29-74.54-0.95-19.94-4.06-76.38-30.15-49.14-12.4,12.95-41.8,34.71-59.5,43.84-52.39,27-304.62-51.52-388.66-51.52,0,0,0-331.57,0-351.39,49-34.06,83.48-94.26,83.48-158.22C1429.88,86.19,1343.68,0,1237.36,0c-0.29,0-.58,0-0.87,0s-0.59,0-.89,0c-106.32,0-192.52,86.19-192.52,192.5,0,64,34.53,124.15,83.48,158.22,0,19.83,0,351.39,0,351.39-84,0-336.27,78.56-388.66,51.52-17.7-9.13-47.1-30.89-59.5-43.84-26.09-27.24-29.2,29.19-30.15,49.14-1.94,40.36-1.18,45.87-1.29,74.54-1.1,53-1.92,152.3,28.58,126.73,20.52-17.2,45.77-36.25,62.73-42.53,56.78-21,308.72,48.07,388.7,48.07-1,105-4.53,192.35-5.89,223.37-28.8,654.21,38.89,982.45-270.86,1003.13C544.1,2212.66,383,1976.24,352,1925.41l125-46.61s-97.7-59.87-199-137.22S84.62,1554.7,84.62,1554.7l-0.14.06s2.16,143.06-23.83,267.88S0,2056.66,0,2056.66l131.68-49.09c239.15,367,436.32,439.07,602.52,486,167.91,47.35,342.21,142.63,394.89,189.49,42.79,38.06,104.63,108.49,107.33,111.59l0,0.09,0,0,0,0v0.11l0,0v-0.15c2.72-3.11,64.54-73.53,107.33-111.59,52.68-46.86,227-142.15,394.89-189.49,166.2-46.88,363.38-118.92,602.52-486L2473,2056.66S2438.32,1947.44,2412.31,1822.64ZM1237.37,263.81c-0.28,0-.55,0-0.83,0h-0.12c-0.28,0-.55,0-0.83,0a71.3,71.3,0,1,1,0-142.59c0.28,0,.55,0,0.83,0h0.12c0.28,0,.55,0,0.83,0A71.3,71.3,0,0,1,1237.37,263.81Z"/></svg>